<svg width="136" height="118" viewBox="0 0 136 118" fill="none" xmlns="http://www.w3.org/2000/svg">
<path fill-rule="evenodd" clip-rule="evenodd" d="M64.795 64.4749H8.46813C5.4306 64.4749 2.96819 62.0758 2.96819 59.1164C2.96819 56.1569 5.4306 53.7579 8.46813 53.7579H58.4658L33.5668 11.7191C33.3056 11.2961 33.1026 10.8351 32.9687 10.3467C32.7938 9.71216 32.7438 9.06104 32.8099 8.42492C32.8889 7.64926 33.1377 6.92224 33.5195 6.27965C33.8997 5.63697 34.4211 5.06426 35.0705 4.61025C35.6037 4.23582 36.2086 3.95215 36.8612 3.7825C37.3617 3.65174 37.8722 3.59278 38.378 3.60178H97.7861C100.824 3.60178 103.286 6.00088 103.286 8.9603C103.286 11.9197 100.824 14.3188 97.7861 14.3188H47.8065L71.2087 53.8303H127.532C130.569 53.8303 133.032 56.2294 133.032 59.1888C133.032 62.1482 130.569 64.5473 127.532 64.5473H77.5375L102.137 106.085C102.857 106.992 103.286 108.129 103.286 109.364C103.286 112.323 100.824 114.723 97.7861 114.723H38.2828C35.2452 114.723 32.7828 112.323 32.7828 109.364C32.7828 106.405 35.2452 104.005 38.2828 104.005H88.2054L64.795 64.4749Z" fill="#FF0033" fill-opacity="0.2"/>
<path fill-rule="evenodd" clip-rule="evenodd" d="M130.28 54.4942C132.911 55.9732 133.813 59.2502 132.295 61.8135L102.549 112.042C101.031 114.605 97.6678 115.484 95.0368 114.005C92.4058 112.526 91.5036 109.249 93.0216 106.686L122.767 56.4576C124.285 53.8942 127.649 53.0152 130.28 54.4942Z" fill="#FF0033"/>
<path fill-rule="evenodd" clip-rule="evenodd" d="M5.71925 63.83C3.08824 62.351 2.18601 59.074 3.70405 56.5107L33.4499 6.28219C34.9679 3.71884 38.3314 2.8398 40.9624 4.31881C43.5934 5.79781 44.4956 9.07479 42.9776 11.6381L13.2318 61.8666C11.7137 64.43 8.35025 65.309 5.71925 63.83Z" fill="#FF0033"/>
<path fill-rule="evenodd" clip-rule="evenodd" d="M130.28 63.83C132.911 62.351 133.813 59.074 132.295 56.5107L102.549 6.28219C101.031 3.71884 97.6678 2.8398 95.0368 4.31881C92.4058 5.79781 91.5036 9.07479 93.0216 11.6381L122.767 61.8666C124.285 64.43 127.649 65.309 130.28 63.83Z" fill="#FF0033"/>
<path fill-rule="evenodd" clip-rule="evenodd" d="M5.71925 54.4942C3.08824 55.9732 2.18601 59.2502 3.70405 61.8135L33.4498 112.042C34.9679 114.605 38.3313 115.484 40.9623 114.005C43.5934 112.526 44.4956 109.249 42.9775 106.686L13.2318 56.4576C11.7137 53.8942 8.35025 53.0152 5.71925 54.4942Z" fill="#FF0033"/>
<path fill-rule="evenodd" clip-rule="evenodd" d="M91.2241 19.9833C93.8547 21.463 94.756 24.7403 93.2372 27.3032L52.3576 96.2882C50.8389 98.8511 47.4752 99.7292 44.8446 98.2495C42.214 96.7698 41.3127 93.4926 42.8314 90.9297L83.711 21.9447C85.2298 19.3817 88.5935 18.5036 91.2241 19.9833Z" fill="#FF0033"/>
<path d="M46.6269 8.96022C46.6269 13.4872 42.8602 17.157 38.2138 17.157C33.5674 17.157 29.8007 13.4872 29.8007 8.96022C29.8007 4.43325 33.5674 0.763428 38.2138 0.763428C42.8602 0.763428 46.6269 4.43325 46.6269 8.96022Z" fill="#FF0033"/>
<path d="M76.4477 59.198C76.4477 63.7249 72.681 67.3948 68.0345 67.3948C63.3881 67.3948 59.6214 63.7249 59.6214 59.198C59.6214 54.671 63.3881 51.0012 68.0345 51.0012C72.681 51.0012 76.4477 54.671 76.4477 59.198Z" fill="#FF0033"/>
<path d="M46.6269 109.364C46.6269 113.891 42.8602 117.561 38.2138 117.561C33.5674 117.561 29.8007 113.891 29.8007 109.364C29.8007 104.837 33.5674 101.167 38.2138 101.167C42.8602 101.167 46.6269 104.837 46.6269 109.364Z" fill="#FF0033"/>
<path d="M16.8808 59.1104C16.8808 63.6373 13.1142 67.3072 8.46772 67.3072C3.82128 67.3072 0.0545959 63.6373 0.0545959 59.1104C0.0545959 54.5834 3.82128 50.9136 8.46772 50.9136C13.1142 50.9136 16.8808 54.5834 16.8808 59.1104Z" fill="#FF0033"/>
<path d="M135.945 59.1103C135.945 63.6373 132.178 67.3071 127.531 67.3071C122.885 67.3071 119.118 63.6373 119.118 59.1103C119.118 54.5833 122.885 50.9135 127.531 50.9135C132.178 50.9135 135.945 54.5833 135.945 59.1103Z" fill="#FF0033"/>
<path d="M106.198 8.96022C106.198 13.4872 102.432 17.157 97.7853 17.157C93.1389 17.157 89.3722 13.4872 89.3722 8.96022C89.3722 4.43325 93.1389 0.763428 97.7853 0.763428C102.432 0.763428 106.198 4.43325 106.198 8.96022Z" fill="#FF0033"/>
<path d="M106.198 109.364C106.198 113.891 102.432 117.561 97.7853 117.561C93.1389 117.561 89.3722 113.891 89.3722 109.364C89.3722 104.837 93.1389 101.167 97.7853 101.167C102.432 101.167 106.198 104.837 106.198 109.364Z" fill="#FF0033"/>
</svg>
